<svg width="10" height="12" viewBox="0 0 10 12" fill="none" xmlns="http://www.w3.org/2000/svg">
<path d="M8.14953 3.89165C8.41953 3.89165 8.68953 3.98332 8.86953 4.16665C9.04953 4.34998 9.22953 4.62498 9.22953 4.89998V10.3083C9.22953 10.5833 9.13953 10.8583 8.86953 11.0417C8.68953 11.225 8.41953 11.3167 8.14953 11.3167H1.84953C1.57953 11.3167 1.30953 11.225 1.12953 11.0417C0.859531 10.8583 0.769531 10.5833 0.769531 10.3083V4.89998C0.769531 4.62498 0.859531 4.34998 1.12953 4.16665C1.30953 3.98332 1.57953 3.89165 1.84953 3.89165H2.38953V2.79165C2.38953 2.05832 2.65953 1.41665 3.19953 0.86665C3.73953 0.316649 4.36953 0.0416498 5.08953 0.0416498C5.80953 0.0416498 6.43953 0.316649 6.97953 0.86665C7.51953 1.41665 7.78953 2.05832 7.78953 2.79165V3.89165H8.14953ZM6.61953 3.89165V2.79165C6.61953 2.33332 6.43953 1.96665 6.16953 1.59998C5.89953 1.23332 5.44953 1.14165 4.99953 1.14165C4.54953 1.14165 4.18953 1.32498 3.82953 1.59998C3.46953 1.87498 3.37953 2.33332 3.37953 2.79165V3.89165H6.61953ZM4.27953 8.38332C4.45953 8.56665 4.72953 8.65832 4.99953 8.65832C5.26953 8.65832 5.53953 8.56665 5.71953 8.29165C5.89953 8.10832 6.07953 7.83332 6.07953 7.55832C6.07953 7.28332 5.98953 7.00832 5.71953 6.82498C5.53953 6.64165 5.26953 6.45832 4.99953 6.45832C4.72953 6.45832 4.45953 6.54998 4.27953 6.82498C4.09953 7.00832 3.91953 7.28332 3.91953 7.55832C3.91953 7.92498 4.00953 8.10832 4.27953 8.38332Z" fill="white"/>
</svg>
