<svg width="86" height="16" viewBox="0 0 86 16" fill="none" xmlns="http://www.w3.org/2000/svg">
<g clip-path="url(#clip0_617_14)">
<path d="M15.9714 6.28661C15.9714 6.04983 15.7923 5.90268 15.4338 5.84503L10.6157 5.14448L8.45609 0.777202C8.33459 0.514841 8.17769 0.383728 7.98576 0.383728C7.79387 0.383728 7.63707 0.514841 7.51547 0.777202L5.3558 5.14448L0.537429 5.84503C0.179188 5.90268 0 6.04983 0 6.28661C0 6.42105 0.0800126 6.57462 0.240004 6.74739L3.7338 10.1452L2.90836 14.9442C2.89555 15.0338 2.8892 15.098 2.8892 15.1362C2.8892 15.2706 2.92275 15.3841 2.98992 15.477C3.05705 15.57 3.15778 15.6163 3.29222 15.6163C3.40746 15.6163 3.53538 15.578 3.67614 15.5012L7.98566 13.2357L12.2955 15.5012C12.4301 15.578 12.558 15.6163 12.6793 15.6163C12.8077 15.6163 12.905 15.57 12.9722 15.477C13.0392 15.3843 13.0728 15.2706 13.0728 15.1362C13.0728 15.0532 13.0695 14.9892 13.0631 14.9442L12.2376 10.1452L15.7217 6.74739C15.8884 6.58101 15.9714 6.42737 15.9714 6.28661Z" fill="#F7A74F"/>
</g>
<g clip-path="url(#clip1_617_14)">
<path d="M39.3142 6.28661C39.3142 6.04983 39.1351 5.90268 38.7766 5.84503L33.9584 5.14448L31.7989 0.777202C31.6774 0.514841 31.5205 0.383728 31.3285 0.383728C31.1366 0.383728 30.9798 0.514841 30.8582 0.777202L28.6986 5.14448L23.8802 5.84503C23.522 5.90268 23.3428 6.04983 23.3428 6.28661C23.3428 6.42105 23.4228 6.57462 23.5828 6.74739L27.0766 10.1452L26.2511 14.9442C26.2383 15.0338 26.232 15.098 26.232 15.1362C26.232 15.2706 26.2655 15.3841 26.3327 15.477C26.3998 15.57 26.5005 15.6163 26.635 15.6163C26.7502 15.6163 26.8782 15.578 27.0189 15.5012L31.3284 13.2357L35.6383 15.5012C35.7729 15.578 35.9008 15.6163 36.0221 15.6163C36.1504 15.6163 36.2478 15.57 36.315 15.477C36.3819 15.3843 36.4155 15.2706 36.4155 15.1362C36.4155 15.0532 36.4123 14.9892 36.4059 14.9442L35.5804 10.1452L39.0645 6.74739C39.2311 6.58101 39.3142 6.42737 39.3142 6.28661Z" fill="#F7A74F"/>
</g>
<g clip-path="url(#clip2_617_14)">
<path d="M62.657 6.28661C62.657 6.04983 62.4779 5.90268 62.1193 5.84503L57.3012 5.14448L55.1416 0.777202C55.0201 0.514841 54.8632 0.383728 54.6713 0.383728C54.4794 0.383728 54.3226 0.514841 54.201 0.777202L52.0414 5.14448L47.223 5.84503C46.8647 5.90268 46.6855 6.04983 46.6855 6.28661C46.6855 6.42105 46.7656 6.57462 46.9256 6.74739L50.4193 10.1452L49.5939 14.9442C49.5811 15.0338 49.5747 15.098 49.5747 15.1362C49.5747 15.2706 49.6083 15.3841 49.6755 15.477C49.7426 15.57 49.8433 15.6163 49.9778 15.6163C50.093 15.6163 50.2209 15.578 50.3617 15.5012L54.6712 13.2357L58.981 15.5012C59.1156 15.578 59.2436 15.6163 59.3648 15.6163C59.4932 15.6163 59.5906 15.57 59.6577 15.477C59.7247 15.3843 59.7583 15.2706 59.7583 15.1362C59.7583 15.0532 59.7551 14.9892 59.7487 14.9442L58.9231 10.1452L62.4073 6.74739C62.5739 6.58101 62.657 6.42737 62.657 6.28661Z" fill="#F7A74F"/>
</g>
<g clip-path="url(#clip3_617_14)">
<path d="M85.9997 6.28661C85.9997 6.04983 85.8206 5.90268 85.4621 5.84503L80.644 5.14448L78.4844 0.777202C78.3629 0.514841 78.206 0.383728 78.0141 0.383728C77.8222 0.383728 77.6654 0.514841 77.5438 0.777202L75.3841 5.14448L70.5657 5.84503C70.2075 5.90268 70.0283 6.04983 70.0283 6.28661C70.0283 6.42105 70.1083 6.57462 70.2683 6.74739L73.7621 10.1452L72.9367 14.9442C72.9239 15.0338 72.9175 15.098 72.9175 15.1362C72.9175 15.2706 72.9511 15.3841 73.0182 15.477C73.0854 15.57 73.1861 15.6163 73.3205 15.6163C73.4358 15.6163 73.5637 15.578 73.7045 15.5012L78.014 13.2357L82.3238 15.5012C82.4584 15.578 82.5864 15.6163 82.7076 15.6163C82.836 15.6163 82.9333 15.57 83.0005 15.477C83.0675 15.3843 83.1011 15.2706 83.1011 15.1362C83.1011 15.0532 83.0978 14.9892 83.0914 14.9442L82.2659 10.1452L85.7501 6.74739C85.9167 6.58101 85.9997 6.42737 85.9997 6.28661Z" fill="#F7A74F"/>
</g>
<defs>
<clipPath id="clip0_617_14">
<rect width="15.9714" height="15.9714" fill="white" transform="translate(0 0.0142822)"/>
</clipPath>
<clipPath id="clip1_617_14">
<rect width="15.9714" height="15.9714" fill="white" transform="translate(23.3428 0.0142822)"/>
</clipPath>
<clipPath id="clip2_617_14">
<rect width="15.9714" height="15.9714" fill="white" transform="translate(46.6855 0.0142822)"/>
</clipPath>
<clipPath id="clip3_617_14">
<rect width="15.9714" height="15.9714" fill="white" transform="translate(70.0283 0.0142822)"/>
</clipPath>
</defs>
</svg>
